<?xml version="1.0" encoding="utf-8"?>
<!-- Generator: Adobe Illustrator 26.3.1, SVG Export Plug-In . SVG Version: 6.00 Build 0)  -->
<svg version="1.1" id="Camada_1" xmlns="http://www.w3.org/2000/svg" xmlns:xlink="http://www.w3.org/1999/xlink" x="0px" y="0px"
	 viewBox="0 0 500 500" style="enable-background:new 0 0 500 500;" xml:space="preserve">
<style type="text/css">
	.st0{fill:#B3B3B3;}
	.st1{fill:#8F0000;}
	.st2{fill:#666666;}
	.st3{fill:#FFFFFF;}
	.st4{fill:#4D4D4D;}
</style>
<g>
	<path class="st0" d="M83.2741928,160.8651123c0-80.9592438,65.630394-146.5896454,146.5896301-146.5896454
		c79.0227356,0,143.4294739,62.5313492,146.4660339,140.8101654c0.0039062-0.4531403,0.0171509-0.904068,0.0171509-1.3582001
		C376.3470154,68.8261337,307.5209045,0,222.6195831,0S68.8922119,68.8261337,68.8922119,153.7274323
		s68.8260651,153.7273102,153.7273712,153.7273102c1.2109222,0,2.4174805-0.0180054,3.6217041-0.0458374
		C146.9560547,305.4856567,83.2741928,240.6131744,83.2741928,160.8651123z"/>
	<path class="st1" d="M376.3298645,155.0856323c-3.0365601-78.2788086-67.4432983-140.8101654-146.4660339-140.8101654
		c-80.9592438,0-146.5896301,65.630394-146.5896301,146.5896454c0,79.7480621,63.6818619,144.6205444,142.9671021,146.5437927
		c1.2040863,0.0292053,2.4113617,0.0458374,3.6225433,0.0458374c80.9592285,0,146.5896912-65.6303864,146.5896912-146.5896301
		C376.4535217,158.9286041,376.4042358,157.0039368,376.3298645,155.0856323z"/>
	<g>
		<polygon class="st2" points="230.3964996,86.5902023 236.2558136,58.0179977 235.9822083,58.1259995 207.5771637,76.3454895 
			207.5984344,76.3523788 205.3035126,101.619812 204.5089417,110.3684235 204.5508881,110.383049 230.2583923,86.7173233 		"/>
		<path class="st2" d="M260.082489,211.8055115c-12.9153442-2.7035675-26.0217743,1.5842133-35.7583923,9.5704346
			c-17.5779877,14.5950623-8.735672,47.7268677-4.47435,60.6174011l42.8262787-41.8675232
			C262.6760254,240.125824,258.5158691,225.7333069,260.082489,211.8055115z"/>
		<polygon class="st2" points="312.6081238,83.3942108 285.9755554,102.9744949 286.0068359,102.9856796 285.6163025,106.2567749 
			281.9585876,136.8952026 283.5013733,137.4077759 306.3442383,112.9895477 306.3546448,112.9784317 312.6400757,83.3622208 
			312.5950012,83.3897858 		"/>
		<path class="st2" d="M383.2679138,107.4093018l-20.1311035,21.3893433h0.000061l-7.0242004,48.1048279l22.9721985-28.3961792
			c0.0428467-0.0013123,0.0875854-0.0000763,0.1304932-0.0013123l4.4824219-41.4401321L383.2679138,107.4093018z"/>
		<path class="st2" d="M336.5036621,319.1732178l26.945343-54.9058228
			c-7.6541748-2.3238525-14.6495667-5.8367615-18.3162537-7.8420105L336.5036621,319.1732178z"/>
	</g>
	<g>
		<path class="st0" d="M230.2583923,86.7173233l-25.7075043,23.6657257l38.7361603,13.5150986l2.6767883-31.5190353
			c-9.5627594-3.4816437-15.5460205-5.7569809-15.5460205-5.7569809L230.2583923,86.7173233z"/>
		<path class="st0" d="M283.5013733,137.4077759l31.1629028,10.3538361l2.4432373-31.4683914
			c-3.5609741-1.0666275-7.1593933-2.1726685-10.7632751-3.3036728L283.5013733,137.4077759z"/>
		<path class="st0" d="M132.0257416,124.9679642c0.0394592-0.0548782,0.0749054-0.1122894,0.1147614-0.1669769
			c-0.045517,0.0547485-0.0926514,0.1076126-0.1380463,0.1624908L132.0257416,124.9679642z"/>
		<path class="st0" d="M137.1465302,119.3275757c13.8292847-12.6057587,26.7153625-9.2341995,35.8286133-3.2064056
			L172.3143158,98.99543C161.969986,100.9838867,148.3444824,108.1498489,137.1465302,119.3275757z"/>
		<polygon class="st0" points="312.6081238,83.3942108 312.5950012,83.3897858 276.2803345,71.2174759 246.2379761,88.7741241 
			246.2690582,88.7852402 246.2699585,88.7741241 282.5823364,101.7609787 285.9755554,102.9744949 		"/>
		<polygon class="st0" points="235.9822083,58.1259995 236.1173248,58.0393257 205.6488495,47.5990829 170.9509888,64.4845657 
			171.9949951,64.8229446 200.4493103,74.0373154 207.5771637,76.3454895 		"/>
		<polygon class="st0" points="363.1368103,128.798645 383.2679138,107.4093018 383.591217,107.0658493 345.4523315,94.3777771 
			317.3276062,113.45784 351.6446533,124.9500885 360.5656128,127.9375534 		"/>
		<path class="st0" d="M420.5263062,162.889267c-9.5589905-10.7272491-27.1637573-14.7810822-41.3109436-14.3832855
			c-0.0429077,0.001236-0.0876465,0-0.1304932,0.0013123l-22.9721985,28.3961792l-0.007019,0.0481873
			c3.4092102-0.5030212,11.1595154-1.1769104,19.9248352,0.9983521c7.9431152,1.9711761,16.7193604,6.2811279,23.8603516,15.1947021
			c13.797821,17.167038,17.9222717,44.4772186,3.5205078,60.8806915
			C411.5513,247.0058746,457.2311707,204.4621124,420.5263062,162.889267z"/>
	</g>
	<path class="st3" d="M399.8908386,193.1447144c-7.1409912-8.9135742-15.9172363-13.223526-23.8603516-15.1947021
		c-8.7653198-2.1752625-16.515625-1.5013733-19.9248352-0.9983521l0.007019-0.0481873l7.0242004-48.1048279h-0.000061
		l-2.5711975-0.8610916l-8.9209595-2.9874649l-34.3170471-11.4921799l-0.2200928,2.8353119l-2.4432373,31.4683914
		l-31.1629028-10.3538361l-1.5427856-0.5125732l3.6577148-30.6384277l0.3905334-3.2710953l-0.0312805-0.0111847l-3.393219-1.2135162
		l-36.3123779-12.9868546l-0.0009003,0.011116l-0.3052216,3.5938721l-2.6767883,31.5190353l-38.7361603-13.5150986
		l-0.0419464-0.0146255l0.7945709-8.7486115l2.2949219-25.2674332l-0.0212708-0.0068893l-7.1278534-2.3081741l-28.4543152-9.2143707
		l-1.0120087-0.327713l1.3313293,34.5001984l0.6608276,17.1257401c-9.1132507-6.0277939-21.9993286-9.399353-35.8286133,3.2064056
		c-0.5911102,0.5387726-1.1832733,1.0958862-1.7775879,1.6941605c-1.1864624,1.1808167-2.2572021,2.4477844-3.2284393,3.7792511
		c-0.039856,0.0546875-0.0753021,0.1120987-0.1147614,0.1669769c-13.5866241,18.8745956-5.9736404,51.3963547,16.9155273,62.2108536
		c12.7200623,5.9658966,21.3066254,7.4573212,27.0167999,7.2442474l2.2371674,59.8716583
		c0,0,16.938797,13.6362457,41.6545105,27.6986237c-4.261322-12.8905334-13.1036377-46.0223389,4.47435-60.6174011
		c9.736618-7.9862213,22.8430481-12.2740021,35.7583923-9.5704346
		c12.2383728,2.5619049,24.3051453,11.3995209,33.1685791,29.3856506
		c14.9146423,30.4684753-1.2784119,54.7580261-9.8010559,64.559082
		c26.9529419,7.1377258,53.0535889,13.4232178,53.0535889,13.4232178l0.000061-0.0002441l8.6290894-62.7478333
		c3.666687,2.005249,10.6620789,5.518158,18.3162537,7.8420105c6.5785217,1.9972229,13.6433716,3.1167297,19.5030212,1.6394653
		c9.0254822-2.2892456,15.7352905-6.500824,20.4593201-11.8814545
		C417.8131104,237.621933,413.6886597,210.3117523,399.8908386,193.1447144z"/>
	<path class="st4" d="M65.6759415,345.0610352c-0.3867188,0.4261169-0.3867188,1.7045288,0,2.1306458
		c2.9094238,0.2130737,3.5954971,0.3195801,4.759903,3.7286682l11.7825699,35.1559448
		c0.3195953,1.0653381,1.033371,1.5979919,1.9921722,1.5979919c0.9055328,0,1.4808121-0.6391907,1.8004074-1.5979919
		l8.9914017-23.1177063c0.2556839-0.7457581,0.6072388-1.5979919,0.9268417-1.5979919
		c0.2663345,0,0.6072388,0.9587708,0.9055328,1.8110657l7.5532074,22.9046326
		c0.394165,1.171875,1.1612091,1.5979919,2.0028229,1.5979919c0.9055328,0,1.4381943-0.5326538,1.7577972-1.4914551
		l12.7200623-35.049408c0.7776947-2.2371826,2.0028229-3.7286682,5.5610352-3.9417419
		c0.3941727-0.4261169,0.3941727-1.7045288,0-2.1306458c-4.3358994,0.2130737-8.6931076,0.1065369-12.7200623,0
		c-0.383522,0.4261169-0.383522,1.7045288,0,2.1306458c2.6526794,0.2130737,5.2307816,0.4261475,4.2613297,3.1960144
		l-10.2804565,29.5097046h-0.1384888l-9.2896957-28.7639771c-1.1185989-3.515564,1.1718674-3.7286682,3.3664474-3.9417419
		c0.383522-0.4261169,0.383522-1.7045288,0-2.1306458c-4.9964066,0.2130737-10.0993423,0.1065369-14.3819809,0
		c-0.383522,0.4261169-0.383522,1.7045288,0,2.1306458c3.4303665,0.2130737,5.0816345,2.2372131,5.6249542,3.9417419
		l0.9694519,2.8764038c0.2556763,0.8522644,0.3302536,1.2784119,0.3302536,1.8110962
		c0,0.8522339-0.1171875,1.7045288-0.4367905,2.4502563l-8.1497879,21.4131775h-0.1384888l-9.6849365-29.7227783
		c-0.7372055-2.3437195,0.97052-2.6633301,3.2290268-2.7698669c0.3835144-0.4261169,0.3835144-1.7045288,0-2.1306458
		c-4.5851898,0.2130737-9.59758,0.1065369-13.3166504,0L65.6759415,345.0610352z M129.7236938,345.0610352
		c-0.3835297,0.4261169-0.3835297,1.7045288,0,2.1306458c4.5276642,0.2130737,5.6249542,0.5326843,5.6249542,5.8593445v25.8875427
		c0,5.433197-1.09729,5.7527771-5.6249542,5.9658508c-0.3835144,0.4261475-0.3835144,1.7045593,0,2.1306763
		c5.901947-0.2130737,11.5695038-0.1065369,16.7470245,0c0.3835144-0.4261169,0.3835144-1.7045288,0-2.1306763
		c-4.5276642-0.2130737-5.6249542-0.5326538-5.6249542-5.9658508v-25.8875427c0-5.3266602,1.09729-5.6462708,5.6249542-5.8593445
		c0.3835144-0.4261169,0.3835144-1.7045288,0-2.1306458C140.5687714,345.2741089,134.9225159,345.167572,129.7236938,345.0610352z
		 M150.4976654,345.0610352c-0.3835144,0.4261169-0.3835144,1.7045288,0,2.1306458
		c4.5276642,0.2130737,5.6249542,0.5326843,5.6249542,5.8593445v25.8875427c0,5.433197-1.09729,5.7527771-5.6249542,5.9658508
		c-0.3835144,0.4261475-0.3835144,1.7045593,0,2.1306763c5.9019318-0.2130737,11.5481873-0.1065369,16.7470245,0
		c0.3835144-0.4261169,0.3835144-1.7045288,0-2.1306763c-4.5276642-0.2130737-5.6249542-0.5326538-5.6249542-5.9658508v-12.0382385
		c2.1732788,0.1065369,3.8671417,0.8522644,5.1562042,2.4502563l10.5680847,12.7839661
		c1.2783966,1.5979919,1.2783966,3.3025513,1.2783966,4.4744263c0,0.2130737,0,0.4261169,0.3195953,0.4261169
		c3.7286682-0.3195801,7.7769318-0.1065369,10.866394,0c0.4261322-0.4261169,0.4261322-1.7045288,0-2.1306763
		c-1.171875-0.2130737-3.5156097,0-5.6462708-2.7698669l-14.2115173-16.8322144
		c-0.5859375-0.6392212-0.7670441-1.0653381-0.7670441-1.5979919c0-0.4261475,0.2769928-0.8522644,2.3970032-3.0894775
		l9.0659637-9.8010559c2.9829407-3.1959839,5.7528076-3.3025513,8.4161224-3.6221313
		c0.3196106-0.4261169,0.3196106-1.7045288,0-2.1306458c-4.9005127,0.2130737-9.16185,0.1065369-13.5297089,0
		c-0.3195953,0.4261169-0.3195953,1.7045288,0,2.1306458c2.3437347,0.2130737,5.0070648-0.1065369,1.9176025,3.4090881
		l-10.9302979,11.292511c-1.2997131,1.3849182-2.6313782,2.34375-4.900528,2.5567932v-11.3990479
		c0-5.3266602,1.1079407-5.6462708,5.6356049-5.8593445c0.3835144-0.4261169,0.3835144-1.7045288,0-2.1306458
		c-5.901947,0.2130737-11.5695038,0.1065369-16.7470245,0H150.4976654z M194.0697327,345.0610352
		c-0.4261322,0.4261169-0.4261322,1.7045288,0,2.1306458c4.5809326,0.2130737,5.6462708,0.5326843,5.6462708,5.8593445v25.8875427
		c0,5.433197-1.0653381,5.7527771-5.6462708,5.9658508c-0.4261322,0.4261475-0.4261322,1.7045593,0,2.1306763
		c5.8593292-0.2130737,11.6121216-0.1065369,16.7257233,0c0.4261322-0.4261169,0.4261322-1.7045288,0-2.1306763
		c-4.4743958-0.2130737-5.6462555-0.5326538-5.6462555-5.9658508v-25.8875427c0-5.3266602,1.1718597-5.6462708,5.6462555-5.8593445
		c0.4261322-0.4261169,0.4261322-1.7045288,0-2.1306458C204.9361267,345.2741089,199.2898712,345.167572,194.0697327,345.0610352z
		 M358.5569763,394.3858643l-10.2272034,5.2201233v4.9005432h-3.8352051v7.4573364h3.8352051v9.3748779
		c0,2.9829407,0.3195801,5.1135864,0.8522644,6.4985352c0.5326538,1.2784119,1.4914551,2.34375,2.6633301,2.9829407
		c1.1718445,0.6391602,3.089447,0.9587708,5.6462402,0.9587708c2.1306458,0,4.4743958-0.2130737,7.031189-0.8522339
		l-0.7457581-7.0312195c-1.3849182,0.4261475-2.3437195,0.6392212-3.1959839,0.6392212
		c-0.7457581,0-1.3849182-0.3195801-1.7045288-0.8522644c-0.2130737-0.4261169-0.3195801-1.171875-0.3195801-2.2371826v-9.4814453
		h5.6462402v-7.4573364h-5.6462402L358.5569763,394.3858643z M90.5194626,403.8673096
		c-1.9815216,0-3.696701,0.3196106-5.0922852,1.0653381c-1.3955841,0.6392212-2.7911758,1.8110962-4.165451,3.5155945v-3.9417419
		h-9.5506973v26.6333008h10.2538147v-13.5297241c0-2.0241394,0.3728714-3.5155945,1.1292572-4.3678894
		c0.7563782-0.9587708,1.7258377-1.3849182,2.8976974-1.3849182c0.7244263,0,1.3636246,0.2131042,1.8962936,0.6392212
		c0.5433197,0.4261169,0.9161835,0.9588013,1.1399002,1.5979919c0.1278458,0.4261169,0.1917648,1.171875,0.1917648,2.34375
		v14.7015686h10.2591476v-13.7427673c0-1.9176025,0.3622131-3.3025513,1.09729-4.2613525
		c0.7350769-0.8522339,1.7258377-1.2784119,2.9296646-1.2784119c1.0120621,0,1.8430176,0.5326843,2.5248337,1.3849182
		c0.4687424,0.6392212,0.7031174,1.4914551,0.7031174,2.6633301v15.2342529h10.2484894V414.414032
		c0-3.6221008-0.7883453-6.2854309-2.3863449-7.9899902c-1.6086502-1.7045288-3.8351898-2.5567932-6.7009354-2.5567932
		c-1.9389038,0-3.5688629,0.3196106-4.8898773,0.9588013c-1.3210144,0.6392212-2.7911682,1.8110657-4.3891602,3.5155945
		c-0.7883453-1.4914551-1.8323746-2.5567932-3.068161-3.3025513c-1.2357864-0.7457275-2.8977051-1.171875-5.0283661-1.171875
		L90.5194626,403.8673096z M137.0957794,403.8673096c-4.6661682,0-8.3735199,1.3849182-11.1220703,3.9417419
		c-2.7485504,2.6633301-4.1334915,6.0724182-4.1334915,10.1206665c0,4.3678589,1.6193085,7.8834534,4.8685684,10.6533203
		c2.6420288,2.1306763,6.136322,3.1959839,10.4189453,3.1959839c4.8046417,0,8.5652618-1.2784119,11.2818604-3.9417419
		c2.7165985-2.5567932,4.0589142-5.9658508,4.0589142-10.120636c0-3.6221313-1.09729-6.7115784-3.2918701-9.1618652
		C146.4493866,405.465332,142.4224243,403.8673096,137.0957794,403.8673096z M176.5982819,403.8673096
		c-2.130661,0-3.8351898,0.4261475-5.3373108,1.171875c-1.4595184,0.7457581-2.8977051,2.0241394-4.3252563,3.7286682v-4.261322
		h-9.5560303v26.6333008h10.2485046V418.355835c0-2.4502563,0.4261322-4.1547852,1.2038269-5.1135559
		c0.7776947-0.8522644,1.7790985-1.3849182,3.025528-1.3849182c1.1186066,0,1.970871,0.3195801,2.6100616,1.0653076
		c0.6392059,0.6392212,0.9588013,1.9176025,0.9588013,3.5155945v14.7015686h10.2271881v-16.9387817
		c0-3.515564-0.7457275-6.0723877-2.3437347-7.7769165c-1.5979919-1.7044983-3.8351898-2.5567627-6.7115936-2.5567627
		L176.5982819,403.8673096z M244.9925842,403.8673096c-2.0241241,0-3.7286682,0.3196106-5.1136017,1.0653381
		c-1.3849335,0.6392212-2.7698669,1.8110962-4.1547852,3.5155945v-3.9417419h-9.4814453v26.6333008h10.2271881v-13.5297241
		c0-2.0241394,0.3196106-3.5155945,1.0653381-4.3678894c0.8522644-0.9587708,1.8110504-1.3849182,2.9829254-1.3849182
		c0.6392059,0,1.2783966,0.2131042,1.8110657,0.6392212s0.958786,0.9588013,1.171875,1.5979919
		c0.1065369,0.4261169,0.2130585,1.171875,0.2130585,2.34375v14.7015686h10.2271881v-13.7427673
		c0-1.9176025,0.3196106-3.3025513,1.0653381-4.2613525c0.7457275-0.8522339,1.7045441-1.2784119,2.9829254-1.2784119
		c0.9588013,0,1.8110657,0.5326843,2.5567932,1.3849182c0.4261169,0.6392212,0.6392212,1.4914551,0.6392212,2.6633301v15.2342529
		h10.3337097V414.414032c0-3.6221008-0.8522644-6.2854309-2.4502869-7.9899902
		c-1.5979919-1.7045288-3.8351746-2.5567932-6.7115784-2.5567932c-1.9176025,0-3.6221313,0.3196106-4.9005432,0.9588013
		c-1.2784119,0.6392212-2.7698669,1.8110657-4.3678589,3.5155945c-0.8522644-1.4914551-1.8110657-2.5567932-3.0894623-3.3025513
		c-1.1718597-0.7457275-2.8763885-1.171875-5.0070496-1.171875L244.9925842,403.8673096z M291.3345032,403.8673096
		c-4.687439,0-8.4161072,1.2784119-11.0794373,3.8352051c-2.6633301,2.6633301-3.9417114,5.9658813-3.9417114,10.2272034
		c0,2.8764038,0.6391907,5.433197,1.9176025,7.6704102c1.3849182,2.1306458,2.9829102,3.7286682,5.0070496,4.687439
		c2.0241089,0.9588013,4.9005432,1.4914551,8.4161072,1.4914551c4.0482788,0,7.2442627-0.5326538,9.374939-1.7045288
		c2.1306458-1.171875,4.0482483-3.089447,5.6462402-5.7527771l-10.120636-0.9588013
		c-0.6392212,0.7457581-1.171875,1.3849182-1.8110657,1.7045288c-0.8522644,0.5326843-1.8110657,0.7457581-2.8764038,0.7457581
		c-1.5979919,0-2.8763733-0.6392212-3.8351746-1.7045288c-0.7457581-0.8522644-1.171875-2.0241394-1.3849487-3.7286682h20.5609131
		v-1.171875c0-3.5155945-0.5326843-6.3919983-1.7045288-8.522644c-1.171875-2.2372131-2.8764038-3.9417419-5.1136169-5.1135864
		c-2.1306458-1.0653381-5.2201233-1.7045288-9.0553284-1.7045288V403.8673096z M331.0714111,403.8673096
		c-2.1306763,0-3.8352051,0.4261475-5.3266602,1.171875c-1.4914551,0.7457581-2.9829407,2.0241394-4.3678894,3.7286682v-4.261322
		h-9.4814453v26.6333008h10.2272034V418.355835c0-2.4502563,0.4261169-4.1547852,1.171875-5.1135559
		c0.7457275-0.8522644,1.7045288-1.3849182,2.9829407-1.3849182c1.1718445,0,2.0241089,0.3195801,2.6633301,1.0653076
		c0.6391907,0.6392212,0.9587708,1.9176025,0.9587708,3.5155945v14.7015686h10.2272034v-16.9387817
		c0-3.515564-0.7457581-6.0723877-2.4502563-7.7769165c-1.5980225-1.7045288-3.7286682-2.5567627-6.605072-2.5567627V403.8673096z
		 M381.2485352,403.8673096c-2.9829407,0-5.3266602,0.3196106-7.1377563,0.9588013
		c-1.8110657,0.6392212-3.1959839,1.5979919-4.261322,2.8764038c-0.9588013,1.2784119-1.4914551,2.7698669-1.4914551,4.4744263
		c0,1.7045288,0.5326538,3.089447,1.3849182,4.3678589c0.9588013,1.171875,2.1306458,2.1306763,3.515564,2.6633301
		c1.3849487,0.5326538,3.8352051,1.0653381,7.4573364,1.7045288c2.34375,0.4261475,3.8352051,0.7457581,4.3678589,1.0653381
		c0.7457581,0.4261169,1.0653381,0.9588013,1.0653381,1.7045288c0,0.6392212-0.2130737,1.171875-0.8522339,1.5980225
		c-0.7457581,0.6391907-1.8110962,0.9587708-3.1960144,0.9587708c-1.171875,0-2.2372131-0.3195801-2.9829102-0.8522339
		c-0.7457275-0.5326843-1.3849182-1.3849182-1.8110657-2.5567932l-10.1206665,0.8522339
		c0.6391907,2.6633301,1.917572,4.5809326,4.0482483,5.9658813c2.0241089,1.4914551,5.5397339,2.1306458,10.4402466,2.1306458
		c3.4090576,0,6.0723877-0.4261169,8.0965271-1.2784119c2.0241089-0.8522644,3.515564-2.0241089,4.3678589-3.515564
		c0.9588013-1.3849182,1.4914551-2.8764038,1.4914551-4.4744263c0-1.4914551-0.4261169-2.8764038-1.3849182-4.1547852
		c-0.8522339-1.2784119-2.1306458-2.3437195-3.8352051-2.9829102c-1.5979919-0.6391907-4.1547852-1.171875-7.5638428-1.5979919
		c-2.2372131-0.3195801-3.6221313-0.5326538-4.3678894-0.8522644c-0.6391907-0.3195801-0.9587708-0.8522339-0.9587708-1.5979919
		c0-0.5326538,0.2130737-1.0653381,0.7457275-1.4914551c0.5326843-0.3195801,1.3849182-0.5326538,2.5567932-0.5326538
		s2.0241394,0.2130737,2.8764038,0.7457275c0.5326843,0.4261475,0.9588013,1.0653381,1.2784119,1.9176025l9.6945496-0.9588013
		c-0.6392212-1.7045288-1.4914856-3.089447-2.5567932-4.1547852c-0.9588013-0.9588013-2.2372131-1.7045288-3.7286682-2.2372131
		c-1.4914551-0.4261169-3.9417419-0.7457275-7.1377258-0.7457275V403.8673096z M191.6194458,404.5065308v16.9387817
		c0,3.515564,0.8522797,6.0723877,2.4502716,7.776886c1.5979919,1.7045288,3.8351898,2.5567932,6.6050568,2.5567932
		c2.130661,0,3.9417267-0.3195801,5.3266602-1.0653381c1.4914551-0.8522339,2.8763885-2.1306458,4.3678589-3.8351746v4.261322
		h9.4814453v-26.6333008h-10.1206512v12.7839661c0,2.4502563-0.4261169,4.1548157-1.2783966,5.1135864
		c-0.7457275,0.9588013-1.7045288,1.3849182-2.9829254,1.3849182c-1.0653381,0-2.0241241-0.3195801-2.6633301-1.0653381
		c-0.5326691-0.7457275-0.8522644-1.8110657-0.8522644-3.515564v-14.7015686L191.6194458,404.5065308z M291.7606506,409.9397278
		c1.4914551,0,2.5567932,0.4261169,3.5155945,1.2784119c0.8522644,0.8522644,1.3849182,2.2372131,1.5979919,4.261322h-10.2272034
		c0.2130737-1.5979919,0.6392212-2.7698669,1.2784119-3.6221008c0.9588013-1.2784119,2.2372131-1.9176025,3.8352051-1.9176025
		V409.9397278z M137.2875214,410.8985291c1.4062347,0,2.5781097,0.6391907,3.5262451,1.7045288
		c0.9588013,1.171875,1.4382019,2.8764038,1.4382019,5.1135864c0,2.5567932-0.4580994,4.3678589-1.4062347,5.433197
		c-0.9375,1.171875-2.1519775,1.7045288-3.6221313,1.7045288c-1.4595184,0-2.6633301-0.5326538-3.632782-1.7045288
		c-0.9588013-1.171875-1.4595032-2.8764038-1.4595032-5.2201233s0.4900513-4.1547852,1.4595032-5.3266602
		C134.5602722,411.5377197,135.796051,410.8985291,137.2875214,410.8985291z"/>
	<path class="st1" d="M249.4659271,345.167572l-11.5801544,0.0319519v41.6757812h11.5801544V345.167572z M343.4495239,355.9487305
		c-5.3373108,0-9.5240784,1.4808044-12.5495911,4.3998108c-3.0255432,2.9190063-4.5276794,6.7329102-4.5276794,11.4523315
		c0,3.3131409,0.7457275,6.1895752,2.2585144,8.6504822c1.5127563,2.4502563,3.398407,4.2293701,5.6995239,5.3586121
		c2.2904663,1.1292419,5.4438171,1.7045288,9.4494934,1.7045288c4.612854,0,8.1604309-0.6498413,10.6213379-1.9708557
		c2.4715881-1.3210144,4.5915833-3.5155945,6.3280945-6.5517883l-11.3883972-1.0653381
		c-0.7244263,0.9161682-1.4169006,1.56604-2.03479,1.9282532c-1.0333862,0.5752869-2.1199951,0.862915-3.2599182,0.862915
		c-1.8110657,0-3.2705688-0.6498413-4.3891602-1.9602051c-0.7990112-0.9161682-1.2997131-2.3011169-1.5021362-4.1654663h23.2348938
		v-1.2996826c0-3.9843445-0.6498413-7.2016602-1.9602051-9.6838684c-1.2997131-2.4822083-3.2279663-4.3785095-5.7314758-5.6888733
		C351.1944885,356.619873,347.7747803,355.9487305,343.4495239,355.9487305z M272.7008362,355.9806824
		c-5.2947083,0-9.4921265,1.480835-12.6135254,4.4637451c-3.1107788,2.9935608-4.6661682,6.7754822-4.6661682,11.5588379
		c0,4.7727051,1.8430176,8.7890015,5.5290833,11.8464966c2.9935913,2.460907,6.9246521,3.6967163,11.7825623,3.6967163
		c5.4544983,0,9.7371216-1.5021362,12.8159485-4.4637451c3.1001282-2.9616394,4.6341858-6.7755127,4.6341858-11.4203796
		c0-4.1334839-1.2357788-7.5958252-3.7286377-10.4189453C283.3648071,357.7384644,278.7625732,355.9806824,272.7008362,355.9806824z
		 M380.5123901,355.9806824c-3.4090576,0-6.1256409,0.351532-8.1497803,1.0653381
		c-2.03479,0.7137756-3.6434326,1.7897339-4.7939758,3.2386169c-1.1612244,1.4382019-1.7365112,3.1320801-1.7365112,5.1242371
		c0,1.8217163,0.5220032,3.44104,1.5979919,4.8579102c1.0653381,1.4275513,2.3970032,2.4289551,3.9630432,3.0255432
		c1.5553894,0.5965881,4.3785095,1.2357788,8.3841553,1.9389038c2.7059631,0.46875,4.335907,0.8735657,4.964447,1.1931763
		c0.8842163,0.4580688,1.331665,1.09729,1.331665,1.9282227c0,0.7457581-0.3409119,1.3742981-1.0014038,1.8643494
		c-0.8522644,0.6711731-2.03479,1.0014038-3.5901794,1.0014038c-1.4168701,0-2.5461426-0.2982788-3.398407-0.8948669
		c-0.8522339-0.5965881-1.5127869-1.6086731-1.992157-2.9935913l-11.526886,1.0653381
		c0.6604919,2.9190063,2.151947,5.1668701,4.495697,6.7542114c2.34375,1.5766907,6.2641602,2.3650208,11.7825623,2.3650208
		c3.8991089,0,6.9885864-0.4580688,9.2577209-1.4382019c2.2585144-0.9694519,3.9204407-2.3117676,4.9644775-3.9523621
		c1.054657-1.6512451,1.5979919-3.3131714,1.5979919-5.0709839c0-1.7045593-0.5007019-3.3131714-1.5021362-4.7513733
		c-0.9907532-1.4382019-2.4182739-2.5354919-4.2932739-3.3025513c-1.875-0.7776794-4.7407532-1.3955688-8.5865784-1.8323669
		c-2.5461731-0.2982788-4.1867371-0.6072388-4.9324951-0.9907532c-0.7457275-0.3728638-1.1292419-0.9694519-1.1292419-1.7045288
		c0-0.6604919,0.2982788-1.2251282,0.8948669-1.6938782c0.6072388-0.4580688,1.5340881-0.6711731,2.8338013-0.6711731
		c1.289032,0,2.386322,0.2983093,3.3025208,0.9055481c0.6604919,0.4580994,1.1399231,1.1824951,1.4275513,2.1626282
		l10.983551-1.0653381c-0.7563782-1.992157-1.7151489-3.5688782-2.8657227-4.730072
		c-1.1505432-1.171875-2.578125-2.0028381-4.2933044-2.5674438
		C386.7872314,356.2683105,384.1239014,355.9806824,380.5123901,355.9806824z M302.2850952,356.619873l-12.0595703,0.0319824
		l12.5922241,30.2234497h10.2804565l12.8159485-30.2554321h-11.6547546l-6.0830383,19.1759949l-5.8912964-19.1759949H302.2850952z
		 M343.8969421,362.8094482c1.5873413,0,2.8764038,0.5007019,3.8565063,1.4595032
		c0.9801025,0.9801331,1.56604,2.5567932,1.800415,4.7940063h-11.4203796
		c0.1917725-1.8110962,0.6285706-3.1533813,1.331665-4.0589294
		C340.562439,363.5445251,342.0539246,362.8094482,343.8969421,362.8094482z M272.8179932,363.9706726
		c1.5980225,0,2.9403076,0.6178589,4.0269775,1.8962708c1.0866394,1.2784119,1.6299438,3.2173157,1.6299438,5.8273926
		c0,2.7911377-0.5539856,4.8259277-1.6299438,6.093689c-1.0759888,1.2677307-2.4502869,1.8962708-4.1335144,1.8962708
		c-1.6512451,0-3.0255432-0.6391907-4.1228333-1.9282227c-1.09729-1.2784119-1.6299438-3.2599182-1.6299438-5.9232483
		s0.5539856-4.6235352,1.6619263-5.9232483C269.7285461,364.6205444,271.1134644,363.9706726,272.8179932,363.9706726z"/>
	<g>
		<path class="st1" d="M71.7110291,480.8687744l5.7740173-0.6159058c0.3079453,3.1054688,1.0070648,5.5243225,2.0978851,7.2554932
			c1.0903015,1.7332458,2.649292,3.1252441,4.6769562,4.177063c2.0271454,1.0528259,4.311264,1.5782166,6.8518295,1.5782166
			c3.6438751,0,6.4731445-0.8894958,8.4878082-2.6695557c2.0141373-1.7790222,3.0217285-4.0907288,3.0217285-6.9329834
			c0-1.6645813-0.3656845-3.117981-1.0970612-4.3601685c-0.7313766-1.2411499-1.8351974-2.2596741-3.3104324-3.0534668
			c-1.4757538-0.7937927-4.6644669-1.9163513-9.5656204-3.3676453c-4.3627625-1.29422-7.4677277-2.5967407-9.3154144-3.9055176
			c-1.8476791-1.3087769-3.2849426-2.9702454-4.311264-4.9844055c-1.0268402-2.0151672-1.5397339-4.2925415-1.5397339-6.8330994
			c0-4.5671997,1.475235-8.3010559,4.4267426-11.2015991c2.9509888-2.8994751,6.9288177-4.3497314,11.9329681-4.3497314
			c3.4384003,0,6.4476471,0.6803894,9.0267105,2.0401306c2.5790558,1.3608093,4.580719,3.3104553,6.0049744,5.8510132
			s2.1873627,5.5305786,2.2903595,8.9689636l-5.8894958,0.5389099c-0.3079453-3.669342-1.405014-6.3898926-3.2911911-8.160614
			c-1.8861771-1.7706909-4.5359802-2.6560364-7.9488907-2.6560364c-3.4644089,0-6.1079712,0.776123-7.9296494,2.3293762
			c-1.822197,1.5522156-2.7330322,3.559082-2.7330322,6.022644c0,2.2846375,0.6668701,4.0543213,2.0021744,5.3110657
			c1.3342667,1.2578125,4.336235,2.5312195,9.0043488,3.8191833c4.5651093,1.2640381,7.7715073,2.3595276,9.6186752,3.2875366
			c2.8214645,1.4429932,4.9526443,3.3374939,6.3925095,5.6835022s2.1603165,5.1466675,2.1603165,8.4019775
			c0,3.2292786-0.7573853,6.1714478-2.2711182,8.8243713c-1.5142441,2.6529236-3.5736465,4.6712341-6.1781921,6.0559387
			C97.4948654,499.3081665,94.3576508,500,90.6882935,500c-5.7230377,0-10.2845154-1.718689-13.6844177-5.1581116
			C73.603447,491.4034729,71.8389893,486.7457886,71.7110291,480.8687744z"/>
		<path class="st1" d="M147.166748,442.6062927h6.1204529v32.6039429c0,5.4660645-0.5321503,9.9510498-1.5959167,13.4529419
			c-1.0637665,3.5039368-2.9993591,6.2692261-5.8062592,8.2958374C143.0775909,498.9866943,139.5075989,500,135.1760406,500
			c-6.1012115,0-10.6710052-1.8216858-13.7083435-5.4660645c-3.0378647-3.6433411-4.5567932-10.0852966-4.5567932-19.3237
			v-32.6039429h6.1204605v32.5654297c0,5.1071472,0.3974152,8.8025208,1.1932907,11.0861206
			c0.7953568,2.2846375,2.0978928,4.0220337,3.9070892,5.2163696c1.8091888,1.1922607,4.009552,1.7894287,6.6016235,1.7894287
			c4.3622437,0,7.5254669-1.231781,9.4886322-3.6953735c1.9631653-2.463562,2.9447479-7.2617188,2.9447479-14.3965454V442.6062927z"
			/>
		<path class="st1" d="M162.3981781,499.0376587v-56.431366h20.5169983c4.2852631,0,7.4484863,0.5264282,9.4886322,1.577179
			c2.0401611,1.0518188,3.7146301,2.8016968,5.023407,5.2507324c1.3087769,2.4500427,1.9631653,5.2902222,1.9631653,8.5216064
			c0,4.2571716-1.1100769,7.7059631-3.3296814,10.3474426c-2.2201385,2.6425171-5.4468231,4.3216858-9.6811066,5.0395203
			c1.7192078,1.0341187,3.0279846,2.0786438,3.9263306,3.1377258c1.8216705,2.1556396,3.4259186,4.5557556,4.811676,7.1982727
			l8.0836182,15.3588867h-7.6986847l-6.1709137-11.7342529c-2.3912659-4.5900879-4.1957855-7.6820374-5.4130096-9.2758789
			c-1.2177429-1.5938416-2.3969879-2.6664429-3.5372314-3.2199097c-1.1412811-0.5524292-2.7366791-0.8291931-4.7877502-0.8291931
			h-7.0749969v25.0592346H162.3981781z M168.518631,467.5115356h13.1647644c2.8740082,0,5.05513-0.3464355,6.5438843-1.0393066
			c1.4882355-0.6929016,2.6685333-1.7832031,3.5413971-3.2719421c0.872345-1.4877319,1.3087769-3.2199402,1.3087769-5.1966248
			c0-2.8485107-0.8343811-5.0873718-2.5020752-6.7165833c-1.6682281-1.630249-4.1448059-2.4448547-7.4292297-2.4448547H168.518631
			V467.5115356z"/>
		<path class="st1" d="M208.2506256,499.0376587v-56.431366h6.1204529v56.431366H208.2506256z"/>
		<path class="st1" d="M223.6578827,499.0376587v-56.431366h6.2744293l24.3278503,44.3933411v-44.3933411h5.8510132v56.431366
			h-6.2744293l-24.2893677-44.4026794v44.4026794H223.6578827z"/>
		<path class="st1" d="M264.3912354,499.0376587l17.8463745-56.431366h6.5459595l18.9512634,56.431366h-7.0068359
			l-5.3818054-17.091095h-19.4683228l-5.0301514,17.091095H264.3912354z M277.668335,475.864624h15.7625427l-4.8096008-15.6283569
			c-1.4877014-4.7981567-2.5780029-8.6994934-3.2709045-11.7019958c-0.597168,3.6183777-1.441925,7.211792-2.5343323,10.7781677
			L277.668335,475.864624z"/>
		<path class="st1" d="M311.6986084,499.0376587v-56.431366h9.203064l10.9841614,39.9561768l2.1961975,8.3530884
			c0.5399475-2.0786438,1.3618469-5.0936279,2.4667053-9.0459595l11.0996399-39.2633057h8.2406921v56.431366h-5.8894958v-47.1960754
			l-13.4945374,47.1960754h-5.5003967l-13.4165344-48.0075378v48.0075378H311.6986084z"/>
		<path class="st1" d="M364.9995422,499.0376587v-56.431366h33.4508057v6.6593628h-27.3303528v17.2450562h25.5981445v6.6593628
			h-25.5981445v19.2082214h28.4081726v6.6593628H364.9995422z"/>
	</g>
</g>
</svg>
